<svg width="125" height="36" viewBox="0 0 125 36" fill="none" xmlns="http://www.w3.org/2000/svg">
<rect x="-0.00195312" width="124.495" height="35.7079" rx="5.79046" fill="#1C1C1C"/>
<path d="M25.0283 7.38818C25.1793 8.54191 24.6354 9.67882 23.8405 10.5145C23.0111 11.3372 21.6842 11.9664 20.3919 11.8854C20.2227 10.7752 20.8775 9.59472 21.6106 8.8745C22.4391 8.05718 23.8778 7.431 25.0283 7.38818Z" fill="white"/>
<path d="M29.2589 14.0436C29.1147 14.116 26.7246 15.3153 26.7508 17.7611C26.7817 20.7146 29.8248 21.6909 29.8611 21.7009C29.843 21.7697 29.3846 23.1115 28.2432 24.4709C27.2901 25.6697 26.2915 26.8418 24.7054 26.8617C23.9511 26.8767 23.4419 26.6944 22.9111 26.5045C22.3579 26.3065 21.7813 26.1002 20.8794 26.1002C19.9232 26.1002 19.321 26.3133 18.7404 26.5189C18.2379 26.6967 17.7516 26.8689 17.066 26.8923C15.5554 26.9389 14.4013 25.6139 13.4136 24.4258C11.4392 22.0013 9.90221 17.5936 11.963 14.5942C12.9616 13.1232 14.7824 12.1759 16.7286 12.1507C17.5856 12.1359 18.4076 12.4136 19.1282 12.657C19.6793 12.8432 20.171 13.0093 20.5738 13.0093C20.9275 13.0093 21.4055 12.8498 21.9625 12.6639C22.8404 12.371 23.9148 12.0126 25.0092 12.1094C25.7577 12.1277 27.8876 12.3579 29.2618 14.0422L29.2589 14.0436Z" fill="white"/>
<path fill-rule="evenodd" clip-rule="evenodd" d="M40.1997 8.04666H38.0648V13.3867H40.1997C42.0882 13.3867 43.1974 12.3986 43.1974 10.7148C43.1974 9.03473 42.0838 8.04666 40.1997 8.04666ZM38.8571 8.64617V12.7872H40.1469C41.5863 12.7872 42.3875 12.047 42.3875 10.7222C42.3875 9.38629 41.5907 8.64617 40.1469 8.64617H38.8571Z" fill="white"/>
<path fill-rule="evenodd" clip-rule="evenodd" d="M46.2579 13.4533C44.9902 13.4533 44.1362 12.6873 44.1362 11.4623C44.1362 10.2337 44.9902 9.47141 46.2579 9.47141C47.5213 9.47141 48.3753 10.2337 48.3753 11.4623C48.3753 12.6873 47.5213 13.4533 46.2579 13.4533ZM47.5961 11.4623C47.5961 12.369 47.0679 12.8871 46.2579 12.8871C45.448 12.8871 44.9154 12.369 44.9154 11.4623C44.9154 10.5557 45.448 10.0376 46.2579 10.0376C47.0679 10.0376 47.5961 10.5557 47.5961 11.4623Z" fill="white"/>
<path d="M53.2142 13.3867H53.9933L55.2699 9.53802H54.5127L53.5971 12.6687H53.5795L52.5407 9.53802H51.8011L50.7667 12.6687H50.7491L49.8335 9.53802H49.0719L50.3529 13.3867H51.132L52.1621 10.4077H52.1797L53.2142 13.3867Z" fill="white"/>
<path d="M56.9173 9.53802H56.1954V13.3867H56.9614V11.1219C56.9614 10.4706 57.4324 10.0413 58.1543 10.0413C58.8586 10.0413 59.2063 10.3818 59.2063 11.0035V13.3867H59.9723V10.8887C59.9723 10.0154 59.3912 9.47141 58.3876 9.47141C57.6789 9.47141 57.1903 9.73785 56.935 10.1523H56.9173V9.53802Z" fill="white"/>
<path d="M61.2852 8.04666V13.3867H62.0512V8.04666H61.2852Z" fill="white"/>
<path fill-rule="evenodd" clip-rule="evenodd" d="M63.1616 11.4623C63.1616 12.6873 64.0156 13.4533 65.2833 13.4533C66.5467 13.4533 67.4007 12.6873 67.4007 11.4623C67.4007 10.2337 66.5467 9.47141 65.2833 9.47141C64.0156 9.47141 63.1616 10.2337 63.1616 11.4623ZM65.2833 12.8871C66.0933 12.8871 66.6215 12.369 66.6215 11.4623C66.6215 10.5557 66.0933 10.0376 65.2833 10.0376C64.4734 10.0376 63.9408 10.5557 63.9408 11.4623C63.9408 12.369 64.4734 12.8871 65.2833 12.8871Z" fill="white"/>
<path fill-rule="evenodd" clip-rule="evenodd" d="M69.8097 13.4533C68.8985 13.4533 68.2866 12.9907 68.2866 12.2987C68.2866 11.64 68.8897 11.2255 69.9462 11.1737L71.2579 11.1108V10.7888C71.2579 10.3189 70.8882 10.0376 70.2543 10.0376C69.6644 10.0376 69.2947 10.2707 69.1978 10.6482H68.4583C68.5111 9.98209 69.189 9.47141 70.2719 9.47141C71.346 9.47141 72.0239 9.95989 72.0239 10.7259V13.3867H71.2976V12.7243H71.2799C71.007 13.1646 70.426 13.4533 69.8097 13.4533ZM71.2579 11.9249C71.2579 12.48 70.7033 12.9056 69.9814 12.9056C69.4311 12.9056 69.0658 12.665 69.0658 12.2987C69.0658 11.936 69.4179 11.7066 70.0342 11.6733L71.2579 11.6104V11.9249Z" fill="white"/>
<path fill-rule="evenodd" clip-rule="evenodd" d="M73.0727 11.4623C73.0727 12.6687 73.865 13.4533 75.0315 13.4533C75.6918 13.4533 76.2157 13.1794 76.5106 12.7354H76.5238V13.3867H77.2545V8.04666H76.4886V10.1634H76.471C76.1981 9.74155 75.6698 9.47141 75.0139 9.47141C73.8606 9.47141 73.0727 10.2559 73.0727 11.4623ZM75.1768 10.0376C74.3669 10.0376 73.8562 10.5927 73.8562 11.4623C73.8562 12.3357 74.3669 12.8871 75.1768 12.8871C75.9648 12.8871 76.493 12.3246 76.493 11.4623C76.493 10.6038 75.9648 10.0376 75.1768 10.0376Z" fill="white"/>
<path fill-rule="evenodd" clip-rule="evenodd" d="M82.636 13.4533C81.3683 13.4533 80.5143 12.6873 80.5143 11.4623C80.5143 10.2337 81.3683 9.47141 82.636 9.47141C83.8994 9.47141 84.7533 10.2337 84.7533 11.4623C84.7533 12.6873 83.8994 13.4533 82.636 13.4533ZM83.9742 11.4623C83.9742 12.369 83.446 12.8871 82.636 12.8871C81.8261 12.8871 81.2934 12.369 81.2934 11.4623C81.2934 10.5557 81.8261 10.0376 82.636 10.0376C83.446 10.0376 83.9742 10.5557 83.9742 11.4623Z" fill="white"/>
<path d="M86.5461 9.53802H85.8242V13.3867H86.5901V11.1219C86.5901 10.4706 87.0611 10.0413 87.783 10.0413C88.4873 10.0413 88.8351 10.3818 88.8351 11.0035V13.3867H89.601V10.8887C89.601 10.0154 89.02 9.47141 88.0163 9.47141C87.3076 9.47141 86.819 9.73785 86.5637 10.1523H86.5461V9.53802Z" fill="white"/>
<path d="M94.0361 8.60916H93.2702V9.53802H92.5879V10.0672H93.2702V12.3875C93.2702 13.1276 93.5959 13.4163 94.4367 13.4163C94.6172 13.4163 94.8285 13.4052 94.9209 13.3867V12.8464C94.8681 12.8538 94.692 12.8649 94.604 12.8649C94.2122 12.8649 94.0361 12.7058 94.0361 12.3542V10.0672H94.9253V9.53802H94.0361V8.60916Z" fill="white"/>
<path d="M96.0798 8.04666V13.3867H96.8457V11.1441C96.8457 10.478 97.3167 10.0413 98.0783 10.0413C98.7958 10.0413 99.1611 10.4077 99.1611 11.0183V13.3867H99.9271V10.8998C99.9271 10.0413 99.3196 9.47141 98.316 9.47141C97.6205 9.47141 97.1186 9.72305 96.8633 10.1523H96.8457V8.04666H96.0798Z" fill="white"/>
<path fill-rule="evenodd" clip-rule="evenodd" d="M104.99 12.2839H104.238C104.11 12.6465 103.683 12.8945 103.102 12.8945C102.279 12.8945 101.764 12.4097 101.764 11.6733V11.6363H105.048V11.392C105.048 10.2263 104.286 9.47141 103.049 9.47141C101.786 9.47141 100.976 10.2818 100.976 11.4771C100.976 12.6873 101.773 13.4533 103.084 13.4533C104.084 13.4533 104.858 12.9574 104.99 12.2839ZM103.036 10.0302C102.318 10.0302 101.817 10.4928 101.768 11.133H104.255C104.238 10.4891 103.758 10.0302 103.036 10.0302Z" fill="white"/>
<path fill-rule="evenodd" clip-rule="evenodd" d="M45.4822 26.4775L44.3729 23.7222H39.7509L38.6416 26.4775H36.6836L41.0619 16.2829H43.0956L47.4739 26.4775H45.4822ZM40.2299 22.4505L42.0367 17.9785H42.0871L43.8939 22.4505H40.2299Z" fill="white"/>
<path fill-rule="evenodd" clip-rule="evenodd" d="M57.3294 22.7614C57.3294 20.4088 55.8503 18.9252 53.6065 18.9252C52.3292 18.9252 51.3123 19.4692 50.7913 20.324H50.7577V19.0453H49.0013V28.936H50.8165V25.2553H50.8585C51.3628 26.0818 52.3712 26.6046 53.6402 26.6046C55.8587 26.6046 57.3294 25.114 57.3294 22.7614ZM53.1275 25.3118C54.5646 25.3118 55.4638 24.3227 55.4638 22.7614C55.4638 21.2071 54.5646 20.211 53.1275 20.211C51.7409 20.211 50.8081 21.2283 50.8081 22.7614C50.8081 24.3086 51.7325 25.3118 53.1275 25.3118Z" fill="white"/>
<path fill-rule="evenodd" clip-rule="evenodd" d="M63.7394 18.9252C65.9831 18.9252 67.4622 20.4088 67.4622 22.7614C67.4622 25.114 65.9916 26.6046 63.773 26.6046C62.504 26.6046 61.4956 26.0818 60.9914 25.2553H60.9493V28.936H59.1342V19.0453H60.8905V20.324H60.9241C61.4452 19.4692 62.462 18.9252 63.7394 18.9252ZM65.5966 22.7614C65.5966 24.3227 64.6974 25.3118 63.2604 25.3118C61.8653 25.3118 60.9409 24.3086 60.9409 22.7614C60.9409 21.2283 61.8738 20.211 63.2604 20.211C64.6974 20.211 65.5966 21.2071 65.5966 22.7614Z" fill="white"/>
<path d="M74.7022 23.6374H72.8449C72.9626 25.4813 74.7778 26.647 77.467 26.647C80.341 26.647 82.1478 25.4531 82.1478 23.5456C82.1478 22.0549 81.1142 21.2142 78.6267 20.7196L77.2905 20.4441C75.7274 20.1191 75.0887 19.6952 75.0887 18.9746C75.0887 18.0703 76.0888 17.4486 77.551 17.4486C79.0132 17.4486 80.0133 18.0633 80.1225 19.0806H81.9545C81.8957 17.3214 80.1393 16.1134 77.5762 16.1134C74.9879 16.1134 73.1643 17.3214 73.1643 19.0806C73.1643 20.5006 74.1979 21.3767 76.4249 21.8288L77.9964 22.1467C79.5679 22.4717 80.2318 22.9451 80.2318 23.7363C80.2318 24.6477 79.1309 25.3118 77.6014 25.3118C76.0047 25.3118 74.8366 24.6477 74.7022 23.6374Z" fill="white"/>
<path d="M86.3812 17.2861H84.5577V19.0453H83.2719V20.2534H84.5577V24.5205C84.5577 25.9547 85.2552 26.5269 87.0451 26.5269C87.4485 26.5269 87.8519 26.4987 88.0536 26.4563V25.2482C87.9359 25.2694 87.6418 25.2835 87.4569 25.2835C86.7174 25.2835 86.3812 24.9939 86.3812 24.351V20.2534H88.062V19.0453H86.3812V17.2861Z" fill="white"/>
<path fill-rule="evenodd" clip-rule="evenodd" d="M89.3541 22.7614C89.3541 25.1563 91.0181 26.6188 93.5476 26.6188C96.0771 26.6188 97.741 25.1563 97.741 22.7614C97.741 20.3735 96.0687 18.911 93.5476 18.911C91.0265 18.911 89.3541 20.3735 89.3541 22.7614ZM93.5476 25.3612C94.9762 25.3612 95.8922 24.4145 95.8922 22.7614C95.8922 21.1153 94.9678 20.1686 93.5476 20.1686C92.1274 20.1686 91.203 21.1153 91.203 22.7614C91.203 24.4145 92.1274 25.3612 93.5476 25.3612Z" fill="white"/>
<path d="M99.5542 19.0453H101.285V20.3099H101.327C101.622 19.4409 102.411 18.9252 103.454 18.9252C103.714 18.9252 103.941 18.9605 104.075 18.9817V20.4017C103.933 20.3523 103.613 20.3169 103.26 20.3169C102.092 20.3169 101.369 20.974 101.369 22.0266V26.4775H99.5542V19.0453Z" fill="white"/>
<path fill-rule="evenodd" clip-rule="evenodd" d="M111.469 24.2997H113.191C112.939 25.6562 111.41 26.624 109.384 26.624C106.788 26.624 105.216 25.1475 105.216 22.802C105.216 20.4706 106.813 18.9163 109.309 18.9163C111.763 18.9163 113.292 20.3717 113.292 22.6254V23.1482H107.048V23.24C107.048 24.5329 107.973 25.3877 109.427 25.3877C110.46 25.3877 111.225 24.9497 111.469 24.2997ZM107.048 22.1691L111.469 22.134C111.469 21.8209 111.313 21.2404 110.947 20.9325C110.58 20.6247 110.041 20.391 109.309 20.391C107.834 20.391 107.048 21.2193 107.048 22.1691Z" fill="white"/>
</svg>
