<svg width="125" height="36" viewBox="0 0 125 36" fill="none" xmlns="http://www.w3.org/2000/svg">
<rect x="0.962891" y="0.253418" width="123.53" height="35.7079" rx="5.79046" fill="#1C1C1C"/>
<path d="M38.9364 9.76747H36.4074V10.4033H38.2011C38.1124 11.295 37.2369 11.6753 36.4105 11.6753C35.3531 11.6753 34.4303 10.9704 34.4303 9.98238C34.4303 9.01998 35.3099 8.27881 36.4127 8.27881C37.2637 8.27881 37.765 8.7383 37.765 8.7383L38.2905 8.27726C38.2905 8.27726 37.616 7.64111 36.3859 7.64111C34.8195 7.64111 33.6078 8.76121 33.6078 9.97098C33.6078 11.1566 34.7476 12.3125 36.4258 12.3125C37.9018 12.3125 38.9823 11.4559 38.9823 10.1891C38.9823 9.92184 38.9364 9.76747 38.9364 9.76747Z" fill="white"/>
<path d="M39.4129 20.0154H44.9703C44.9742 20.0288 45.0707 20.3664 45.0707 20.9418C45.0707 23.7254 42.6966 25.6079 39.4533 25.6079C35.7656 25.6079 33.2609 23.0678 33.2609 20.4628C33.2609 17.8043 35.9237 15.343 39.3656 15.3431C42.0686 15.3431 43.5507 16.7409 43.5507 16.7409L42.3959 17.754C42.3959 17.754 41.2943 16.7441 39.4246 16.7441C37.0014 16.7441 35.0686 18.3728 35.0686 20.4877C35.0686 22.6585 37.0961 24.2075 39.4195 24.2075C41.2356 24.2075 43.1595 23.3719 43.3543 21.4126H39.4129V20.0154Z" fill="white"/>
<path fill-rule="evenodd" clip-rule="evenodd" d="M45.7797 22.2757C45.7797 20.514 47.4139 19.0036 49.6944 19.0036C51.5688 19.0036 53.6015 20.129 53.6015 22.3141C53.6015 24.2206 51.854 25.6019 49.721 25.6019C47.3647 25.6019 45.7797 24.0634 45.7797 22.2757ZM51.901 22.3054C51.901 21.0676 50.8384 20.2994 49.7169 20.2994C48.4569 20.2994 47.4885 21.1529 47.4885 22.2957C47.4885 23.4636 48.469 24.3069 49.7118 24.3069C50.8428 24.3069 51.901 23.5168 51.901 22.3054Z" fill="white"/>
<path fill-rule="evenodd" clip-rule="evenodd" d="M58.3004 19.0036C56.0201 19.0036 54.3857 20.514 54.3857 22.2757C54.3857 24.0634 55.9709 25.6019 58.3272 25.6019C60.4602 25.6019 62.2077 24.2206 62.2077 22.3141C62.2077 20.129 60.1751 19.0036 58.3004 19.0036ZM58.3231 20.2994C59.4444 20.2994 60.5072 21.0676 60.5072 22.3054C60.5072 23.5168 59.449 24.3069 58.3178 24.3069C57.0752 24.3069 56.0948 23.4636 56.0948 22.2957C56.0948 21.1529 57.063 20.2994 58.3231 20.2994Z" fill="white"/>
<path fill-rule="evenodd" clip-rule="evenodd" d="M62.9917 22.3035C62.9917 20.5602 64.6371 19.0071 66.7301 19.0071C67.6413 19.0071 68.3278 19.3059 68.8297 19.7642V19.2054H70.4623V25.1337C70.4623 27.463 68.8762 28.5733 66.795 28.5733C64.8925 28.5733 63.8238 27.5822 63.2927 26.6306L64.7893 26.1005C64.9966 26.5256 65.5933 27.2753 66.7827 27.2753C68.0139 27.2753 68.8296 26.5933 68.8296 25.4551V24.8046C68.394 25.2329 67.8039 25.6063 66.694 25.6063C64.8991 25.6063 62.9917 24.2894 62.9917 22.3035ZM66.8815 20.3003C67.9078 20.3003 68.9616 21.0427 68.9616 22.3106C68.9616 23.5992 67.91 24.3094 66.8589 24.3094C65.7432 24.3094 64.7048 23.5418 64.7048 22.3228C64.7048 21.0562 65.7832 20.3003 66.8815 20.3003Z" fill="white"/>
<path fill-rule="evenodd" clip-rule="evenodd" d="M74.4326 22.294C74.4326 20.3301 76.0902 18.9991 78.0646 18.9991C79.6218 18.9991 80.7985 19.8791 81.3029 20.9325L81.574 21.4705L76.3526 23.306C76.6645 23.798 77.1679 24.3059 78.2625 24.306C79.237 24.306 79.821 23.8571 80.1704 23.3977L81.5164 24.1566C80.9129 24.8408 79.9018 25.6044 78.2543 25.6044C76.2803 25.6044 74.4326 24.372 74.4326 22.294ZM78.1328 20.2681C78.8442 20.2681 79.3562 20.5884 79.5736 20.9728L76.0867 22.2075C75.9364 21.2515 77.0055 20.2681 78.1328 20.2681Z" fill="white"/>
<path d="M73.4867 25.4086H71.7716V15.6842H73.4867V25.4086Z" fill="white"/>
<path d="M94.7662 25.4086H96.4813V15.6842H94.7662V25.4086Z" fill="white"/>
<path fill-rule="evenodd" clip-rule="evenodd" d="M87.3864 25.4086H85.6713V15.6842L89.82 15.6841C91.831 15.6841 93.4763 17.0781 93.4763 18.782C93.4763 20.4858 91.831 21.8798 89.82 21.8798H87.3864V25.4086ZM87.3864 20.4267V17.1372H89.82C90.8844 17.1372 91.7614 17.8802 91.7614 18.782C91.7614 19.6838 90.8844 20.4267 89.82 20.4267H87.3864Z" fill="white"/>
<path d="M109.144 28.5733L114.11 18.9993H112.236L109.989 23.3318L107.742 18.9993H105.869L109.053 25.1376L107.271 28.5733H109.144Z" fill="white"/>
<path fill-rule="evenodd" clip-rule="evenodd" d="M103.5 25.4086H105.216V21.9111C105.484 18.304 100.086 17.4556 98.0439 20.056L99.424 20.8406C100.423 19.3614 103.272 19.7017 103.46 21.287C102.603 21.0948 101.678 20.9554 100.833 21.0279C99.5132 21.141 98.3835 21.851 98.204 23.0138C98.107 23.6422 98.2726 24.4167 98.7903 24.8887C99.5972 25.6242 100.922 25.7233 102.01 25.472C102.623 25.3305 103.105 25.0221 103.5 24.6236V25.4086ZM101.602 24.2045C102.541 23.9879 103.281 23.4062 103.5 22.5975C103.021 22.4659 102.579 22.3596 102.073 22.3079C99.1259 21.9325 99.6193 24.6625 101.602 24.2045Z" fill="white"/>
<path d="M50.0539 12.2218H49.2735V7.79642H50.0539V12.2218Z" fill="white"/>
<path d="M44.9025 12.2218H45.683V8.45765H46.9642V7.79642H43.6213V8.45765H44.9025V12.2218Z" fill="white"/>
<path d="M42.7984 12.2218H39.8051V7.79642H42.7984V8.45765H40.5857V9.67851H42.532V10.3397H40.5857V11.5605H42.7984V12.2218Z" fill="white"/>
<path d="M52.751 12.2218V8.45765H54.0321V7.79642H50.6894V8.45765H51.9705V12.2218H52.751Z" fill="white"/>
<path fill-rule="evenodd" clip-rule="evenodd" d="M56.0404 9.97098C56.0404 8.7611 57.2522 7.64111 58.8185 7.64111C60.3849 7.64111 61.5967 8.7611 61.5967 9.97098C61.5967 11.1471 60.4749 12.2939 58.8185 12.312C57.1622 12.2939 56.0404 11.1471 56.0404 9.97098ZM58.8185 11.675C57.7715 11.6641 56.863 10.9627 56.863 9.98238C56.863 9.02786 57.7284 8.29094 58.8185 8.27902C59.9088 8.29094 60.7741 9.02786 60.7741 9.98238C60.7741 10.9627 59.8656 11.6641 58.8185 11.675Z" fill="white"/>
<path d="M63.1569 12.2218H62.3763V7.79642H63.1569L65.6623 11.0183V7.79642H66.4429V12.2218H65.6636L63.1569 8.99831V12.2218Z" fill="white"/>
<path d="M12.2962 13.161L21.1148 20.6214L12.3386 28.1472C12.0825 28.0093 11.9452 27.7107 11.9428 27.3251L11.8633 13.9679C11.8609 13.5456 12.0422 13.2879 12.2962 13.161Z" fill="white"/>
<path d="M13.2994 13.1711L24.0228 18.1278L21.4796 20.3085L12.9252 13.0715C13.0548 13.0859 13.1848 13.1181 13.2994 13.1711Z" fill="white"/>
<path d="M24.4997 22.8635L21.8469 20.6192L24.497 18.347L28.1464 20.0337C29.0454 20.449 28.5856 20.9686 28.1464 21.1722L24.4997 22.8635Z" fill="white"/>
<path d="M13.2994 28.057C13.2184 28.0954 13.1403 28.1254 13.0655 28.1493L21.4822 20.9321L24.025 23.0834L13.2994 28.057Z" fill="white"/>
</svg>
