<svg width="65" height="46" viewBox="0 0 65 46" fill="none" xmlns="http://www.w3.org/2000/svg">
<path d="M10.6238 0.399998C11.4238 0.399998 12.0944 0.764704 12.6356 1.49412C13.1767 2.2 13.4826 3.38823 13.5532 5.05882C13.2003 5.67059 12.2238 6.27059 10.6238 6.85882C9.04733 7.44706 7.31792 7.95294 5.43556 8.37647C5.31792 8.09412 5.2238 7.70588 5.15321 7.21176C5.05909 6.69412 5.01204 6.28235 5.01204 5.97647L5.75321 5.8C6.12968 5.5647 6.31792 5.29412 6.31792 4.98823C6.31792 4.72941 6.10615 4.48235 5.68262 4.24706C5.25909 3.98823 4.55321 3.67059 3.56498 3.29412C3.75321 2.70588 4.08262 2.04706 4.55321 1.31764C5.44733 1.78823 6.17674 2.25882 6.74145 2.72941C7.28262 3.17647 7.55321 3.7647 7.55321 4.49412C7.55321 4.77647 7.48262 5.08235 7.34145 5.41176L8.2238 5.1647C7.91792 4.45882 7.76498 3.81176 7.76498 3.22353C7.76498 2.37647 8.04733 1.69412 8.61204 1.17647C9.17674 0.658822 9.84733 0.399998 10.6238 0.399998ZM9.67086 4.70588C10.7532 4.37647 11.412 4.11764 11.6473 3.92941C11.6238 3.57647 11.5062 3.30588 11.2944 3.11765C11.1062 2.90588 10.8826 2.8 10.6238 2.8C10.2944 2.8 10.0356 2.91764 9.84733 3.15294C9.65909 3.3647 9.56498 3.64706 9.56498 4C9.56498 4.21176 9.60027 4.44706 9.67086 4.70588ZM8.167 14.4706C7.41406 14.4706 6.87288 14.1294 6.54347 13.4471C6.19053 12.7647 6.01406 11.9529 6.01406 11.0118C6.01406 10.4 6.07288 9.83529 6.19053 9.31764H7.42582C7.44935 10.1412 7.54347 10.7176 7.70817 11.0471C7.87288 11.3529 8.10817 11.5059 8.41406 11.5059C8.88465 11.5059 9.22582 11.2706 9.43759 10.8C9.64935 10.3294 9.81406 9.70588 9.9317 8.92941L11.1317 9.17647C11.0376 10.4235 11.2729 11.0471 11.8376 11.0471C12.0964 11.0471 12.2964 10.8941 12.4376 10.5882C12.5788 10.2824 12.6611 9.72941 12.6846 8.92941H13.9199L13.9552 9.49411C13.9552 10.5294 13.7788 11.4941 13.4258 12.3882C13.0964 13.2588 12.5317 13.6941 11.7317 13.6941C11.0729 13.6941 10.6023 13.4118 10.3199 12.8471H10.1788C9.70817 13.9294 9.03759 14.4706 8.167 14.4706ZM22.4672 13.5529C22.6319 14.2118 22.7142 15.3882 22.7142 17.0824C22.7142 18.2588 22.6672 19.0941 22.5731 19.5882C19.7495 20.2471 17.8084 20.9412 16.7495 21.6706C19.7613 23.0353 21.2672 24.3647 21.2672 25.6588C21.2672 27.4706 20.6907 29.1647 19.5378 30.7412C18.3848 32.3176 16.8201 33.5765 14.8437 34.5176C12.8907 35.4824 10.7495 35.9647 8.42012 35.9647C5.7613 35.9647 3.77307 35.2235 2.45542 33.7412C1.1613 32.2824 0.514241 30.2824 0.514241 27.7412C0.514241 25.0118 1.25542 21.8706 2.73777 18.3176L7.60836 19.8706C6.73777 22.0824 6.30248 24 6.30248 25.6235C6.30248 26.8941 6.58483 27.8824 7.14954 28.5882C7.71424 29.2706 8.58483 29.6118 9.7613 29.6118C10.5378 29.6118 11.4437 29.4235 12.4789 29.0471C13.5378 28.6706 14.5378 28.1176 15.4789 27.3882C13.7378 26.5176 12.5731 25.8353 11.9848 25.3412C11.4201 24.8471 11.1378 24.3294 11.1378 23.7882C11.1378 22.5647 11.6437 21.2235 12.6554 19.7647C13.6672 18.2824 15.0319 16.9647 16.7495 15.8118C18.4907 14.6588 20.3966 13.9059 22.4672 13.5529ZM15.9025 42.3882C15.9495 42.7412 15.6907 43.3176 15.126 44.1176C14.5613 44.9176 14.0789 45.4588 13.6789 45.7412C13.2319 45.5529 12.6672 45.2235 11.9848 44.7529C11.3025 44.3059 10.7966 43.8941 10.4672 43.5176C10.2319 43.9412 9.92601 44.3765 9.54954 44.8235C9.17307 45.2706 8.86718 45.5765 8.63189 45.7412C8.1613 45.5294 7.5613 45.1647 6.83189 44.6471C6.10248 44.1529 5.58483 43.7294 5.27895 43.3765C5.42012 42.8824 5.77307 42.2235 6.33777 41.4C6.90248 40.5765 7.37307 40.1647 7.74954 40.1647C8.12601 40.1647 8.69071 40.4235 9.44365 40.9412C10.1966 41.4824 10.6554 41.9294 10.8201 42.2824C11.1495 41.6941 11.4907 41.1882 11.8437 40.7647C12.1966 40.3647 12.5142 40.1647 12.7966 40.1647C13.1731 40.1647 13.7613 40.4471 14.5613 41.0118C15.3848 41.6 15.8319 42.0588 15.9025 42.3882ZM27.209 44.7765C27.0678 44.6353 26.9384 44.3412 26.8208 43.8941C26.7031 43.4471 26.6443 43.0588 26.6443 42.7294V42.5529C27.4914 42.1765 28.4678 41.8471 29.5737 41.5647C30.6561 41.3059 31.6914 41.1176 32.6796 41C32.8678 41.5176 32.9619 42.1294 32.9619 42.8353C32.9619 43.2588 32.9384 43.5529 32.8914 43.7176C32.2561 43.7647 31.2678 43.9176 29.9267 44.1765C28.609 44.4353 27.7031 44.6353 27.209 44.7765ZM30.8832 16.5529C32.0361 16.5529 33.0126 16.9647 33.8126 17.7882C34.6126 18.5882 35.2008 19.6118 35.5773 20.8588C35.9538 22.1059 36.1067 23.3412 36.0361 24.5647C35.9185 27.1294 35.2244 29.6941 33.9538 32.2588C32.6832 34.8235 31.3067 36.9882 29.8244 38.7529C29.0714 38.4706 28.1302 37.9529 27.0008 37.2C25.8949 36.4706 25.0596 35.7882 24.4949 35.1529C24.5655 35.0588 24.6479 34.9647 24.742 34.8706C24.8596 34.7765 24.9655 34.6706 25.0596 34.5529C27.0361 32.5059 28.5185 30.7412 29.5067 29.2588C28.1185 28.9529 26.9538 28.3765 26.0126 27.5294C25.0714 26.6588 24.6008 25.5765 24.6008 24.2824C24.6008 23.1294 24.9185 21.9529 25.5538 20.7529C26.1891 19.5294 26.9891 18.5294 27.9538 17.7529C28.942 16.9529 29.9185 16.5529 30.8832 16.5529ZM30.0361 23.5412C30.6008 23.6118 31.1891 23.6471 31.8008 23.6471C32.3185 23.6471 32.6949 23.6353 32.9302 23.6118C32.5302 23.1176 32.0244 22.7176 31.4126 22.4118C30.8244 22.0824 30.2479 21.9176 29.6832 21.9176C29.2596 21.9176 28.9067 22.0118 28.6244 22.2C28.3655 22.3647 28.2361 22.6118 28.2361 22.9412C28.3773 23.2 28.9773 23.4 30.0361 23.5412ZM41.2379 12.1765C41.0967 12.0353 40.9673 11.7412 40.8496 11.2941C40.732 10.8471 40.6732 10.4588 40.6732 10.1294V9.95294C41.5202 9.57647 42.4967 9.25882 43.6026 9C44.6849 8.71764 45.7202 8.51764 46.7084 8.4C46.8967 8.91765 46.9908 9.52941 46.9908 10.2353C46.9908 10.6588 46.9673 10.9529 46.9202 11.1176C46.2849 11.1647 45.2967 11.3176 43.9555 11.5765C42.6379 11.8353 41.732 12.0353 41.2379 12.1765ZM54.0427 23.4353C54.4192 23.4353 54.6663 23.7059 54.7839 24.2471C54.9251 24.7882 54.9957 25.6118 54.9957 26.7176C54.9957 27.8471 54.9251 28.6824 54.7839 29.2235C54.6427 29.7412 54.3957 30 54.0427 30C53.1251 30 52.1839 29.7765 51.2192 29.3294C50.278 28.8588 49.3957 28.1647 48.5721 27.2471C48.2898 27.6941 47.8545 28.3412 47.2663 29.1882C46.6545 29.4706 45.8427 29.7059 44.831 29.8941C43.8427 30.0824 42.7721 30.1765 41.6192 30.1765C40.1839 30.1765 38.9133 30.0235 37.8074 29.7176C37.9016 27.5529 38.2898 25.4588 38.9721 23.4353C40.1957 23.5529 41.2427 23.6118 42.1133 23.6118C43.5016 23.6118 44.7957 23.4824 45.9957 23.2235C44.7251 20.9647 43.3133 18.8353 41.7604 16.8353L46.631 12.7059C47.478 13.9059 48.1604 15.0471 48.678 16.1294C49.2192 17.2118 49.8427 18.6 50.5486 20.2941C50.9251 21.1647 51.2545 21.8118 51.5369 22.2353C51.8192 22.6588 52.1486 22.9647 52.5251 23.1529C52.9016 23.3412 53.4074 23.4353 54.0427 23.4353ZM58.0577 16.1765C57.9165 16.0353 57.7871 15.7412 57.6695 15.2941C57.5518 14.8471 57.493 14.4588 57.493 14.1294V13.9529C58.3401 13.5765 59.3165 13.2588 60.4224 13C61.5048 12.7176 62.5401 12.5176 63.5283 12.4C63.7165 12.9176 63.8107 13.5294 63.8107 14.2353C63.8107 14.6588 63.7871 14.9529 63.7401 15.1176C63.1048 15.1647 62.1165 15.3176 60.7754 15.5765C59.4577 15.8353 58.5518 16.0353 58.0577 16.1765ZM64.1098 17.9294C64.5569 19.3412 64.7804 20.8706 64.7804 22.5176C64.7804 23.7647 64.651 24.9647 64.3922 26.1176C64.1334 27.2706 63.7687 28.2235 63.2981 28.9765C62.3098 29.2588 61.004 29.5059 59.3804 29.7176C57.7569 29.9059 55.9804 30 54.051 30C53.6981 30 53.451 29.7412 53.3098 29.2235C53.1687 28.6824 53.0981 27.8471 53.0981 26.7176C53.0981 25.6118 53.1687 24.7882 53.3098 24.2471C53.4275 23.7059 53.6745 23.4353 54.051 23.4353C56.5687 23.4353 58.4275 23.2941 59.6275 23.0118C59.4392 22.2118 59.204 21.4235 58.9216 20.6471C58.6628 19.8706 58.5098 19.4 58.4628 19.2353L64.1098 17.9294ZM64.004 34.6941C64.051 35.0471 63.7922 35.6235 63.2275 36.4235C62.6628 37.2235 62.1804 37.7647 61.7804 38.0471C61.3334 37.8588 60.7687 37.5294 60.0863 37.0588C59.404 36.6118 58.8981 36.2 58.5687 35.8235C58.3334 36.2471 58.0275 36.6824 57.651 37.1294C57.2745 37.5765 56.9687 37.8824 56.7334 38.0471C56.2628 37.8353 55.6628 37.4706 54.9334 36.9529C54.204 36.4588 53.6863 36.0353 53.3804 35.6824C53.5216 35.1882 53.8745 34.5294 54.4392 33.7059C55.004 32.8824 55.4745 32.4706 55.851 32.4706C56.2275 32.4706 56.7922 32.7294 57.5451 33.2471C58.2981 33.7882 58.7569 34.2353 58.9216 34.5882C59.251 34 59.5922 33.4941 59.9451 33.0706C60.2981 32.6706 60.6157 32.4706 60.8981 32.4706C61.2745 32.4706 61.8628 32.7529 62.6628 33.3176C63.4863 33.9059 63.9334 34.3647 64.004 34.6941Z" fill="#1E1E1E"/>
</svg>
